<?xml version="1.0" standalone="no"?>
<!DOCTYPE svg PUBLIC "-//W3C//DTD SVG 20010904//EN"
 "http://www.w3.org/TR/2001/REC-SVG-20010904/DTD/svg10.dtd">
<svg version="1.0" xmlns="http://www.w3.org/2000/svg"
 width="225.000000pt" height="225.000000pt" viewBox="0 0 225.000000 225.000000"
 preserveAspectRatio="xMidYMid meet">

<g transform="translate(0.000000,225.000000) scale(0.100000,-0.100000)"
fill="#000000" stroke="none">
<path d="M0 1125 l0 -1125 1125 0 1125 0 0 1125 0 1125 -1125 0 -1125 0 0
-1125z m1868 694 l2 -175 -462 -505 -462 -504 457 -3 457 -2 5 -23 c3 -12 4
-94 3 -182 l-3 -160 -702 -3 -703 -2 0 177 0 178 464 505 463 505 -461 5 -461
5 -3 170 c-1 93 0 175 2 182 4 11 140 13 703 11 l698 -3 3 -176z"/>
<path d="M490 1816 l0 -156 417 0 c229 0 414 2 412 4 -2 2 -186 70 -409 151
-223 81 -408 149 -412 152 -5 2 -8 -66 -8 -151z"/>
<path d="M600 1958 c57 -23 814 -298 816 -295 1 1 36 71 78 155 l76 152 -497
-1 c-352 0 -491 -3 -473 -11z"/>
<path d="M1630 1965 c0 -7 201 -275 206 -275 2 0 4 63 4 140 l0 140 -105 0
c-58 0 -105 -2 -105 -5z"/>
<path d="M1282 1335 c-171 -344 -310 -625 -308 -625 6 0 856 929 856 935 0 6
-203 279 -224 302 -9 10 -86 -137 -324 -612z"/>
<path d="M950 1109 c-223 -243 -416 -455 -428 -471 l-24 -29 117 -155 c64 -86
118 -154 120 -152 5 6 625 1248 622 1248 -1 0 -184 -199 -407 -441z"/>
<path d="M1001 596 c2 -2 186 -71 409 -151 223 -81 411 -150 418 -152 9 -4 12
30 12 151 l0 156 -422 0 c-232 0 -419 -2 -417 -4z"/>
<path d="M834 439 c-41 -83 -73 -153 -71 -155 2 -2 229 -3 505 -2 l502 3 -423
153 c-232 84 -425 152 -429 152 -5 0 -42 -68 -84 -151z"/>
<path d="M490 427 l0 -147 110 0 111 0 -107 143 c-59 78 -109 144 -111 146 -1
2 -3 -62 -3 -142z"/>
</g>
</svg>
